<svg t="1606714871348" class="icon" viewBox="0 0 1024 1024" version="1.1" xmlns="http://www.w3.org/2000/svg" p-id="6689" width="200" height="200"><path d="M763.072 222.784l83.712-83.712 67.872 67.872-83.712 83.744zM464 25.6h96v121.6h-96zM880 880v-118.4-201.6C880 355.2 716.8 192 512 192S144 355.2 144 560v320H64v96h896v-96h-80z m-320 0h-96V576h96v304z m99.2-150.4l-64-73.6c28.8-25.6 44.8-57.6 44.8-96 0-70.4-57.6-128-128-128s-128 57.6-128 128c0 38.4 16 70.4 41.6 96l-64 70.4C316.8 684.8 288 624 288 560c0-124.8 99.2-224 224-224s224 99.2 224 224c0 64-28.8 124.8-76.8 169.6zM91.072 209.216l67.872-67.872 83.712 83.712-67.872 67.872z" p-id="6690"></path></svg>