<svg t="1606714699396" class="icon" viewBox="0 0 1024 1024" version="1.1" xmlns="http://www.w3.org/2000/svg" p-id="6563" width="200" height="200"><path d="M636.8 297.6c-32-19.2-32-19.2-73.6-19.2h-150.4v220.8h153.6c57.6 0 57.6 0 86.4-35.2 28.8-35.2 28.8-35.2 28.8-73.6 0-35.2 0-35.2-12.8-57.6-9.6-22.4-9.6-22.4-32-35.2z" p-id="6564"></path><path d="M64 64v896h896V64H64z m668.8 467.2c-54.4 67.2-54.4 67.2-160 67.2H416V864H310.4V179.2h262.4c32 0 32 0 60.8 6.4 38.4 12.8 38.4 12.8 76.8 41.6 32 22.4 32 22.4 51.2 67.2 22.4 41.6 22.4 41.6 22.4 96 0 76.8 0 76.8-51.2 140.8z" p-id="6565"></path></svg>